<?xml version="1.0" encoding="iso-8859-1"?>
<!-- Generator: Adobe Illustrator 16.0.0, SVG Export Plug-In . SVG Version: 6.00 Build 0)  -->
<!DOCTYPE svg PUBLIC "-//W3C//DTD SVG 1.1//EN" "http://www.w3.org/Graphics/SVG/1.1/DTD/svg11.dtd">
<svg version="1.1" id="Capa_1" xmlns="http://www.w3.org/2000/svg" xmlns:xlink="http://www.w3.org/1999/xlink" x="0px" y="0px"
	 width="102px" height="102px" viewBox="0 0 102 102" style="enable-background:new 0 0 102 102;" xml:space="preserve">
<g>
	<g>
		<path d="M75.532,28.413c-6.085,3.608-11.113,8.81-14.47,15.058c0,0,10.373,5.684,10.248,17.71
			c-0.009,0.949-0.082,1.855-0.201,2.723C69.878,82.13,54.843,96.419,36.297,96.419c-2.432,0-4.805-0.251-7.098-0.724
			C35.509,99.684,42.982,102,51,102c22.579,0,40.883-18.305,40.883-40.884C91.883,47.744,85.46,35.872,75.532,28.413z"/>
		<path d="M67.925,72.275c-3.723,5.485-9.182,7.648-9.182,7.648c-2.706-5.453-4.228-11.598-4.228-18.097
			c0-14.629,7.702-27.458,19.273-34.654c-0.001-0.001-0.001-0.001-0.001-0.001c3.887-2.417,8.205-4.207,12.819-5.204
			c1,0.46-11.832-4.786-25.701-1.918c0,0-2.834-13.52-9.729-19.751L50.963,0L50.76,0.298c-6.895,6.231-9.729,19.751-9.729,19.751
			c-13.87-2.867-26.701,2.379-25.702,1.918c4.628,1,8.956,2.797,12.852,5.222c0,0-0.001,0.001-0.003,0.003
			c11.553,7.2,19.243,20.019,19.243,34.634c0,6.499-1.522,12.644-4.226,18.097c0,0-12.425-4.913-12.569-18.743
			c-0.125-12.027,10.25-17.711,10.25-17.711c-3.351-6.235-8.366-11.429-14.434-15.037c-9.914,7.46-16.325,19.322-16.325,32.683
			c0,12.73,5.819,24.101,14.942,31.6c3.512,1.258,7.293,1.951,11.238,1.951C50.883,94.666,63.389,85.32,67.925,72.275z"/>
	</g>
</g>
<g>
</g>
<g>
</g>
<g>
</g>
<g>
</g>
<g>
</g>
<g>
</g>
<g>
</g>
<g>
</g>
<g>
</g>
<g>
</g>
<g>
</g>
<g>
</g>
<g>
</g>
<g>
</g>
<g>
</g>
</svg>
